# xmcd
#
# Track frame offsets:
#	150
#	26057
#	50810
#	75102
#	100000
#	126064
#	157856
#	175096
#	199749
#	222855
#
# Disc length: 3192 seconds
#
# Revision: 0
# Processed by: cddbd v1.5.2PL0 Copyright (c) Steve Scherf et al.
# Submitted via: EZCDAudioConverter 8.0.2.1
#
DISCID=760c760a
DTITLE=Nguyên Khang - Vì Đó Là Em [CD1)
DYEAR=2004
DGENRE=Miscellaneous
TTITLE0=Vì Đó Là Em
TTITLE1=Lặng lẽ nơi này
TTITLE2=Dù nắng có mong manh
TTITLE3=Mắt lệ cho người
TTITLE4=Về đây nghe em
TTITLE5=Dạ khúc cho tình nhân
TTITLE6=Đường vào tình yêu
TTITLE7=Xin còn gọi tên nhau
TTITLE8=Tình kỹ nữ
TTITLE9=Phôi pha
EXTD=
EXTT0=
EXTT1=
EXTT2=
EXTT3=
EXTT4=
EXTT5=
EXTT6=
EXTT7=
EXTT8=
EXTT9=
PLAYORDER=
